<?xml version="1.0" standalone="yes"?><!DOCTYPE svg PUBLIC "-//W3C//DTD SVG 1.1//EN" "http://www.w3.org/Graphics/SVG/1.1/DTD/svg11.dtd"[
<!ENTITY E6 'matrix(1.00 0.00 -0.00 1.00 305.00 200.00 ) '><!ENTITY E29 'matrix(-0.07 0.75 -0.75 -0.07 444.79 418.83 ) '><!ENTITY E39 'matrix(0.32 -0.68 0.68 0.32 484.93 269.01 ) '><!ENTITY E23 'matrix(0.94 -0.34 0.34 0.94 298.67 164.09 ) '><!ENTITY E30 'matrix(-0.32 0.68 -0.68 -0.32 418.37 411.75 ) '><!ENTITY E14 'matrix(-0.94 0.34 -0.34 -0.94 101.33 235.91 ) '><!ENTITY E37 'matrix(-0.19 -0.72 0.72 -0.19 431.27 264.31 ) '><!ENTITY E25 'matrix(0.72 0.19 -0.19 0.72 527.72 360.76 ) '><!ENTITY E41 'matrix(0.68 -0.32 0.32 0.68 523.02 307.10 ) '><!ENTITY E16 'matrix(-0.94 -0.34 0.34 -0.94 101.33 164.09 ) '><!ENTITY E15 'matrix(-1.00 0.00 -0.00 -1.00 95.00 200.00 ) '><!ENTITY E35 'matrix(-0.61 -0.43 0.43 -0.61 387.14 295.21 ) '><!ENTITY E21 'matrix(0.50 -0.87 0.87 0.50 252.50 109.07 ) '><!ENTITY E19 'matrix(-0.17 -0.98 0.98 -0.17 181.77 96.60 ) '><!ENTITY E28 'matrix(0.19 0.72 -0.72 0.19 472.03 416.44 ) '><!ENTITY E27 'matrix(0.43 0.61 -0.61 0.43 496.82 404.89 ) '><!ENTITY E7 'matrix(0.94 0.34 -0.34 0.94 298.67 235.91 ) '><!ENTITY E12 'matrix(-0.50 0.87 -0.87 -0.50 147.50 290.93 ) '><!ENTITY E24 'matrix(0.72 0.19 -0.19 0.72 451.65 340.38 ) '><!ENTITY E13 'matrix(-0.77 0.64 -0.64 -0.77 119.57 267.49 ) '><!ENTITY E17 'matrix(-0.77 -0.64 0.64 -0.77 119.57 132.51 ) '><!ENTITY E5 'opacity:1;stroke:none;fill:rgb(245,245,245);'><!ENTITY E34 'matrix(-0.72 -0.19 0.19 -0.72 375.58 320.00 ) '><!ENTITY E1 'stroke-linecap:butt;opacity:1;fill:none;stroke-width:10;stroke-miterlimit:9;stroke-linejoin:miter;stroke:rgb(0,128,0);'><!ENTITY E40 'matrix(0.53 -0.53 0.53 0.53 507.34 284.69 ) '><!ENTITY E11 'matrix(-0.17 0.98 -0.98 -0.17 181.77 303.40 ) '><!ENTITY E9 'matrix(0.50 0.87 -0.87 0.50 252.50 290.93 ) '><!ENTITY E26 'matrix(0.61 0.43 -0.43 0.61 516.16 385.55 ) '><!ENTITY E42 'matrix(0.75 -0.07 0.07 0.75 530.10 333.51 ) '><!ENTITY E33 'matrix(-0.75 0.07 -0.07 -0.75 373.20 347.24 ) '><!ENTITY E10 'matrix(0.17 0.98 -0.98 0.17 218.23 303.40 ) '><!ENTITY E31 'matrix(-0.53 0.53 -0.53 -0.53 395.97 396.06 ) '><!ENTITY E3 'opacity:1;stroke:none;fill:rgb(255,255,0);'><!ENTITY E22 'matrix(0.77 -0.64 0.64 0.77 280.43 132.51 ) '><!ENTITY E38 'matrix(0.07 -0.75 0.75 0.07 458.52 261.93 ) '><!ENTITY E32 'matrix(-0.68 0.32 -0.32 -0.68 380.28 373.66 ) '><!ENTITY E20 'matrix(0.17 -0.98 0.98 0.17 218.23 96.60 ) '><!ENTITY E8 'matrix(0.77 0.64 -0.64 0.77 280.43 267.49 ) '><!ENTITY E2 'matrix(1.00 0.00 0.00 1.00 200.00 200.00 ) '><!ENTITY E4 'stroke-linecap:butt;opacity:1;fill:none;stroke-width:3;stroke-miterlimit:9;stroke-linejoin:miter;stroke:rgb(0,0,0);'><!ENTITY E36 'matrix(-0.43 -0.61 0.61 -0.43 406.48 275.87 ) '><!ENTITY E18 'matrix(-0.50 -0.87 0.87 -0.50 147.50 109.07 ) '>
]><svg id="SvgGdi_output" xmlns="http://www.w3.org/2000/svg" xmlns:xlink="http://www.w3.org/1999/xlink" width="1000" height="720"><rect id="background" x="0.00" height="100.00%" style="fill:rgb(255,255,255);" width="100.00%" y="0.00" /><g style="shape-rendering:crispEdges;" id="root_group"><line y1="0.00" x1="0.00" x2="0.00" id="2" style="&E1;" transform="&E2;" y2="500.00" /><ellipse id="3" cy="0.00" rx="40.00" ry="40.00" style="&E3;" transform="&E2;" cx="0.00" /><ellipse id="4" cy="0.00" rx="40.00" ry="40.00" style="&E4;" transform="&E2;" cx="0.00" /><ellipse id="5" cy="0.00" rx="60.00" ry="10.00" style="&E5;" transform="&E6;" cx="0.00" /><ellipse id="6" cy="0.00" rx="60.00" ry="10.00" style="&E4;" transform="&E6;" cx="0.00" /><ellipse id="7" cy="0.00" rx="60.00" ry="10.00" style="&E5;" transform="&E7;" cx="0.00" /><ellipse id="8" cy="0.00" rx="60.00" ry="10.00" style="&E4;" transform="&E7;" cx="0.00" /><ellipse id="9" cy="0.00" rx="60.00" ry="10.00" style="&E5;" transform="&E8;" cx="0.00" /><ellipse id="10" cy="0.00" rx="60.00" ry="10.00" style="&E4;" transform="&E8;" cx="0.00" /><ellipse id="11" cy="0.00" rx="60.00" ry="10.00" style="&E5;" transform="&E9;" cx="0.00" /><ellipse id="12" cy="0.00" rx="60.00" ry="10.00" style="&E4;" transform="&E9;" cx="0.00" /><ellipse id="13" cy="0.00" rx="60.00" ry="10.00" style="&E5;" transform="&E10;" cx="0.00" /><ellipse id="14" cy="0.00" rx="60.00" ry="10.00" style="&E4;" transform="&E10;" cx="0.00" /><ellipse id="15" cy="0.00" rx="60.00" ry="10.00" style="&E5;" transform="&E11;" cx="0.00" /><ellipse id="16" cy="0.00" rx="60.00" ry="10.00" style="&E4;" transform="&E11;" cx="0.00" /><ellipse id="17" cy="0.00" rx="60.00" ry="10.00" style="&E5;" transform="&E12;" cx="0.00" /><ellipse id="18" cy="0.00" rx="60.00" ry="10.00" style="&E4;" transform="&E12;" cx="0.00" /><ellipse id="19" cy="0.00" rx="60.00" ry="10.00" style="&E5;" transform="&E13;" cx="0.00" /><ellipse id="20" cy="0.00" rx="60.00" ry="10.00" style="&E4;" transform="&E13;" cx="0.00" /><ellipse id="21" cy="0.00" rx="60.00" ry="10.00" style="&E5;" transform="&E14;" cx="0.00" /><ellipse id="22" cy="0.00" rx="60.00" ry="10.00" style="&E4;" transform="&E14;" cx="0.00" /><ellipse id="23" cy="0.00" rx="60.00" ry="10.00" style="&E5;" transform="&E15;" cx="0.00" /><ellipse id="24" cy="0.00" rx="60.00" ry="10.00" style="&E4;" transform="&E15;" cx="0.00" /><ellipse id="25" cy="0.00" rx="60.00" ry="10.00" style="&E5;" transform="&E16;" cx="0.00" /><ellipse id="26" cy="0.00" rx="60.00" ry="10.00" style="&E4;" transform="&E16;" cx="0.00" /><ellipse id="27" cy="0.00" rx="60.00" ry="10.00" style="&E5;" transform="&E17;" cx="0.00" /><ellipse id="28" cy="0.00" rx="60.00" ry="10.00" style="&E4;" transform="&E17;" cx="0.00" /><ellipse id="29" cy="0.00" rx="60.00" ry="10.00" style="&E5;" transform="&E18;" cx="0.00" /><ellipse id="30" cy="0.00" rx="60.00" ry="10.00" style="&E4;" transform="&E18;" cx="0.00" /><ellipse id="31" cy="0.00" rx="60.00" ry="10.00" style="&E5;" transform="&E19;" cx="0.00" /><ellipse id="32" cy="0.00" rx="60.00" ry="10.00" style="&E4;" transform="&E19;" cx="0.00" /><ellipse id="33" cy="0.00" rx="60.00" ry="10.00" style="&E5;" transform="&E20;" cx="0.00" /><ellipse id="34" cy="0.00" rx="60.00" ry="10.00" style="&E4;" transform="&E20;" cx="0.00" /><ellipse id="35" cy="0.00" rx="60.00" ry="10.00" style="&E5;" transform="&E21;" cx="0.00" /><ellipse id="36" cy="0.00" rx="60.00" ry="10.00" style="&E4;" transform="&E21;" cx="0.00" /><ellipse id="37" cy="0.00" rx="60.00" ry="10.00" style="&E5;" transform="&E22;" cx="0.00" /><ellipse id="38" cy="0.00" rx="60.00" ry="10.00" style="&E4;" transform="&E22;" cx="0.00" /><ellipse id="39" cy="0.00" rx="60.00" ry="10.00" style="&E5;" transform="&E23;" cx="0.00" /><ellipse id="40" cy="0.00" rx="60.00" ry="10.00" style="&E4;" transform="&E23;" cx="0.00" /><line y1="0.00" x1="0.00" x2="0.00" id="41" style="&E1;" transform="&E24;" y2="500.00" /><ellipse id="42" cy="0.00" rx="40.00" ry="40.00" style="&E3;" transform="&E24;" cx="0.00" /><ellipse id="43" cy="0.00" rx="40.00" ry="40.00" style="&E4;" transform="&E24;" cx="0.00" /><ellipse id="44" cy="0.00" rx="60.00" ry="10.00" style="&E5;" transform="&E25;" cx="0.00" /><ellipse id="45" cy="0.00" rx="60.00" ry="10.00" style="&E4;" transform="&E25;" cx="0.00" /><ellipse id="46" cy="0.00" rx="60.00" ry="10.00" style="&E5;" transform="&E26;" cx="0.00" /><ellipse id="47" cy="0.00" rx="60.00" ry="10.00" style="&E4;" transform="&E26;" cx="0.00" /><ellipse id="48" cy="0.00" rx="60.00" ry="10.00" style="&E5;" transform="&E27;" cx="0.00" /><ellipse id="49" cy="0.00" rx="60.00" ry="10.00" style="&E4;" transform="&E27;" cx="0.00" /><ellipse id="50" cy="0.00" rx="60.00" ry="10.00" style="&E5;" transform="&E28;" cx="0.00" /><ellipse id="51" cy="0.00" rx="60.00" ry="10.00" style="&E4;" transform="&E28;" cx="0.00" /><ellipse id="52" cy="0.00" rx="60.00" ry="10.00" style="&E5;" transform="&E29;" cx="0.00" /><ellipse id="53" cy="0.00" rx="60.00" ry="10.00" style="&E4;" transform="&E29;" cx="0.00" /><ellipse id="54" cy="0.00" rx="60.00" ry="10.00" style="&E5;" transform="&E30;" cx="0.00" /><ellipse id="55" cy="0.00" rx="60.00" ry="10.00" style="&E4;" transform="&E30;" cx="0.00" /><ellipse id="56" cy="0.00" rx="60.00" ry="10.00" style="&E5;" transform="&E31;" cx="0.00" /><ellipse id="57" cy="0.00" rx="60.00" ry="10.00" style="&E4;" transform="&E31;" cx="0.00" /><ellipse id="58" cy="0.00" rx="60.00" ry="10.00" style="&E5;" transform="&E32;" cx="0.00" /><ellipse id="59" cy="0.00" rx="60.00" ry="10.00" style="&E4;" transform="&E32;" cx="0.00" /><ellipse id="60" cy="0.00" rx="60.00" ry="10.00" style="&E5;" transform="&E33;" cx="0.00" /><ellipse id="61" cy="0.00" rx="60.00" ry="10.00" style="&E4;" transform="&E33;" cx="0.00" /><ellipse id="62" cy="0.00" rx="60.00" ry="10.00" style="&E5;" transform="&E34;" cx="0.00" /><ellipse id="63" cy="0.00" rx="60.00" ry="10.00" style="&E4;" transform="&E34;" cx="0.00" /><ellipse id="64" cy="0.00" rx="60.00" ry="10.00" style="&E5;" transform="&E35;" cx="0.00" /><ellipse id="65" cy="0.00" rx="60.00" ry="10.00" style="&E4;" transform="&E35;" cx="0.00" /><ellipse id="66" cy="0.00" rx="60.00" ry="10.00" style="&E5;" transform="&E36;" cx="0.00" /><ellipse id="67" cy="0.00" rx="60.00" ry="10.00" style="&E4;" transform="&E36;" cx="0.00" /><ellipse id="68" cy="0.00" rx="60.00" ry="10.00" style="&E5;" transform="&E37;" cx="0.00" /><ellipse id="69" cy="0.00" rx="60.00" ry="10.00" style="&E4;" transform="&E37;" cx="0.00" /><ellipse id="70" cy="0.00" rx="60.00" ry="10.00" style="&E5;" transform="&E38;" cx="0.00" /><ellipse id="71" cy="0.00" rx="60.00" ry="10.00" style="&E4;" transform="&E38;" cx="0.00" /><ellipse id="72" cy="0.00" rx="60.00" ry="10.00" style="&E5;" transform="&E39;" cx="0.00" /><ellipse id="73" cy="0.00" rx="60.00" ry="10.00" style="&E4;" transform="&E39;" cx="0.00" /><ellipse id="74" cy="0.00" rx="60.00" ry="10.00" style="&E5;" transform="&E40;" cx="0.00" /><ellipse id="75" cy="0.00" rx="60.00" ry="10.00" style="&E4;" transform="&E40;" cx="0.00" /><ellipse id="76" cy="0.00" rx="60.00" ry="10.00" style="&E5;" transform="&E41;" cx="0.00" /><ellipse id="77" cy="0.00" rx="60.00" ry="10.00" style="&E4;" transform="&E41;" cx="0.00" /><ellipse id="78" cy="0.00" rx="60.00" ry="10.00" style="&E5;" transform="&E42;" cx="0.00" /><ellipse id="79" cy="0.00" rx="60.00" ry="10.00" style="&E4;" transform="&E42;" cx="0.00" /><rect id="80" x="0.00" height="20.00" width="1000.00" y="700.00" style="opacity:1;stroke:none;fill:rgb(0,128,0);" /><rect id="81" x="0.00" height="20.00" width="1000.00" y="700.00" style="stroke-linecap:butt;opacity:1;fill:none;stroke-width:1;stroke-miterlimit:9;stroke-linejoin:miter;stroke:rgb(0,128,0);" /></g><defs id="clips_hatches_and_gradients" /></svg>